<mxfile host="app.diagrams.net" modified="2022-06-05T19:01:37.943Z" agent="5.0 (Windows NT 10.0; Win64; x64) AppleWebKit/537.36 (KHTML, like Gecko) Chrome/102.0.5005.61 Safari/537.36" etag="wVLgw38pClXXNfbJX0rU" version="19.0.0" type="github">
  <diagram name="Page-1" id="e7e014a7-5840-1c2e-5031-d8a46d1fe8dd">
    <mxGraphModel dx="1769" dy="1134" grid="1" gridSize="10" guides="1" tooltips="1" connect="1" arrows="1" fold="1" page="1" pageScale="1" pageWidth="1169" pageHeight="826" background="none" math="0" shadow="0">
      <root>
        <mxCell id="0" />
        <mxCell id="1" parent="0" />
        <mxCell id="20" value="" style="endArrow=open;strokeColor=#FF0000;endFill=1;rounded=0;shadow=1;" parent="1" edge="1">
          <mxGeometry relative="1" as="geometry">
            <mxPoint x="120" y="104.5" as="sourcePoint" />
            <mxPoint x="250" y="104.5" as="targetPoint" />
          </mxGeometry>
        </mxCell>
        <mxCell id="5" value="" style="ellipse;shape=startState;fillColor=#000000;strokeColor=#ff0000;shadow=1;" parent="1" vertex="1">
          <mxGeometry x="60" y="71.26" width="60" height="60" as="geometry" />
        </mxCell>
        <mxCell id="MXPMxVQfIhnhI3akkJEb-42" value="" style="rounded=1;whiteSpace=wrap;html=1;shadow=1;" vertex="1" parent="1">
          <mxGeometry x="250" y="86.25" width="120" height="37.5" as="geometry" />
        </mxCell>
        <mxCell id="MXPMxVQfIhnhI3akkJEb-43" value="" style="rhombus;whiteSpace=wrap;html=1;shadow=1;" vertex="1" parent="1">
          <mxGeometry x="460" y="62.5" width="90" height="85" as="geometry" />
        </mxCell>
        <mxCell id="MXPMxVQfIhnhI3akkJEb-44" value="" style="rounded=1;whiteSpace=wrap;html=1;shadow=1;" vertex="1" parent="1">
          <mxGeometry x="260" y="290" width="110" height="30" as="geometry" />
        </mxCell>
        <mxCell id="MXPMxVQfIhnhI3akkJEb-45" value="" style="rounded=1;whiteSpace=wrap;html=1;shadow=1;" vertex="1" parent="1">
          <mxGeometry x="820" y="290" width="110" height="30" as="geometry" />
        </mxCell>
        <mxCell id="MXPMxVQfIhnhI3akkJEb-46" value="" style="endArrow=classic;html=1;rounded=0;exitX=1;exitY=0.5;exitDx=0;exitDy=0;entryX=0;entryY=0.5;entryDx=0;entryDy=0;shadow=1;" edge="1" parent="1" source="MXPMxVQfIhnhI3akkJEb-42" target="MXPMxVQfIhnhI3akkJEb-43">
          <mxGeometry width="50" height="50" relative="1" as="geometry">
            <mxPoint x="560" y="400" as="sourcePoint" />
            <mxPoint x="610" y="350" as="targetPoint" />
          </mxGeometry>
        </mxCell>
        <mxCell id="MXPMxVQfIhnhI3akkJEb-47" value="" style="endArrow=none;html=1;rounded=0;exitX=0.575;exitY=-0.007;exitDx=0;exitDy=0;exitPerimeter=0;shadow=1;" edge="1" parent="1" source="MXPMxVQfIhnhI3akkJEb-42">
          <mxGeometry width="50" height="50" relative="1" as="geometry">
            <mxPoint x="560" y="400" as="sourcePoint" />
            <mxPoint x="319" y="40" as="targetPoint" />
          </mxGeometry>
        </mxCell>
        <mxCell id="MXPMxVQfIhnhI3akkJEb-48" value="" style="endArrow=none;html=1;rounded=0;shadow=1;" edge="1" parent="1">
          <mxGeometry width="50" height="50" relative="1" as="geometry">
            <mxPoint x="317" y="40" as="sourcePoint" />
            <mxPoint x="507" y="40" as="targetPoint" />
          </mxGeometry>
        </mxCell>
        <mxCell id="MXPMxVQfIhnhI3akkJEb-49" value="" style="endArrow=none;html=1;rounded=0;exitX=0.5;exitY=0;exitDx=0;exitDy=0;shadow=1;" edge="1" parent="1" source="MXPMxVQfIhnhI3akkJEb-43">
          <mxGeometry width="50" height="50" relative="1" as="geometry">
            <mxPoint x="560" y="400" as="sourcePoint" />
            <mxPoint x="505" y="40" as="targetPoint" />
          </mxGeometry>
        </mxCell>
        <mxCell id="MXPMxVQfIhnhI3akkJEb-50" value="" style="endArrow=none;html=1;rounded=0;shadow=1;" edge="1" parent="1">
          <mxGeometry width="50" height="50" relative="1" as="geometry">
            <mxPoint x="320" y="260" as="sourcePoint" />
            <mxPoint x="880" y="260" as="targetPoint" />
          </mxGeometry>
        </mxCell>
        <mxCell id="MXPMxVQfIhnhI3akkJEb-51" value="" style="endArrow=classic;html=1;rounded=0;exitX=0.5;exitY=1;exitDx=0;exitDy=0;shadow=1;" edge="1" parent="1" source="MXPMxVQfIhnhI3akkJEb-43">
          <mxGeometry width="50" height="50" relative="1" as="geometry">
            <mxPoint x="560" y="400" as="sourcePoint" />
            <mxPoint x="505" y="260" as="targetPoint" />
          </mxGeometry>
        </mxCell>
        <mxCell id="MXPMxVQfIhnhI3akkJEb-52" value="" style="endArrow=classic;html=1;rounded=0;entryX=0.564;entryY=0.033;entryDx=0;entryDy=0;entryPerimeter=0;shadow=1;" edge="1" parent="1">
          <mxGeometry width="50" height="50" relative="1" as="geometry">
            <mxPoint x="319" y="260" as="sourcePoint" />
            <mxPoint x="319.03999999999996" y="290.99" as="targetPoint" />
          </mxGeometry>
        </mxCell>
        <mxCell id="MXPMxVQfIhnhI3akkJEb-53" value="" style="endArrow=classic;html=1;rounded=0;shadow=1;" edge="1" parent="1">
          <mxGeometry width="50" height="50" relative="1" as="geometry">
            <mxPoint x="880" y="260" as="sourcePoint" />
            <mxPoint x="880" y="290" as="targetPoint" />
          </mxGeometry>
        </mxCell>
        <mxCell id="MXPMxVQfIhnhI3akkJEb-55" value="" style="rounded=1;whiteSpace=wrap;html=1;shadow=1;" vertex="1" parent="1">
          <mxGeometry x="20" y="430" width="120" height="43" as="geometry" />
        </mxCell>
        <mxCell id="MXPMxVQfIhnhI3akkJEb-56" value="" style="rounded=1;whiteSpace=wrap;html=1;shadow=1;" vertex="1" parent="1">
          <mxGeometry x="160" y="430" width="120" height="43" as="geometry" />
        </mxCell>
        <mxCell id="MXPMxVQfIhnhI3akkJEb-57" value="" style="rounded=1;whiteSpace=wrap;html=1;shadow=1;" vertex="1" parent="1">
          <mxGeometry x="300" y="430" width="120" height="43" as="geometry" />
        </mxCell>
        <mxCell id="MXPMxVQfIhnhI3akkJEb-58" value="" style="rounded=1;whiteSpace=wrap;html=1;shadow=1;" vertex="1" parent="1">
          <mxGeometry x="440" y="430" width="120" height="43" as="geometry" />
        </mxCell>
        <mxCell id="MXPMxVQfIhnhI3akkJEb-59" value="" style="endArrow=classic;html=1;rounded=0;exitX=0.5;exitY=1;exitDx=0;exitDy=0;shadow=1;" edge="1" parent="1" source="MXPMxVQfIhnhI3akkJEb-44">
          <mxGeometry width="50" height="50" relative="1" as="geometry">
            <mxPoint x="560" y="400" as="sourcePoint" />
            <mxPoint x="315" y="390" as="targetPoint" />
          </mxGeometry>
        </mxCell>
        <mxCell id="MXPMxVQfIhnhI3akkJEb-60" value="" style="endArrow=classic;html=1;rounded=0;exitX=0.5;exitY=1;exitDx=0;exitDy=0;shadow=1;" edge="1" parent="1">
          <mxGeometry width="50" height="50" relative="1" as="geometry">
            <mxPoint x="881" y="320" as="sourcePoint" />
            <mxPoint x="880" y="500" as="targetPoint" />
          </mxGeometry>
        </mxCell>
        <mxCell id="MXPMxVQfIhnhI3akkJEb-63" value="" style="rounded=1;whiteSpace=wrap;html=1;shadow=1;" vertex="1" parent="1">
          <mxGeometry x="669" y="530" width="120" height="43" as="geometry" />
        </mxCell>
        <mxCell id="MXPMxVQfIhnhI3akkJEb-64" value="" style="rounded=1;whiteSpace=wrap;html=1;shadow=1;" vertex="1" parent="1">
          <mxGeometry x="809" y="530" width="120" height="43" as="geometry" />
        </mxCell>
        <mxCell id="MXPMxVQfIhnhI3akkJEb-65" value="" style="rounded=1;whiteSpace=wrap;html=1;shadow=1;" vertex="1" parent="1">
          <mxGeometry x="949" y="530" width="120" height="43" as="geometry" />
        </mxCell>
        <mxCell id="MXPMxVQfIhnhI3akkJEb-66" value="" style="rounded=1;whiteSpace=wrap;html=1;shadow=1;" vertex="1" parent="1">
          <mxGeometry x="1089" y="530" width="120" height="43" as="geometry" />
        </mxCell>
        <mxCell id="MXPMxVQfIhnhI3akkJEb-67" value="" style="rounded=1;whiteSpace=wrap;html=1;shadow=1;" vertex="1" parent="1">
          <mxGeometry x="1229" y="530" width="120" height="43" as="geometry" />
        </mxCell>
        <mxCell id="MXPMxVQfIhnhI3akkJEb-68" value="" style="rounded=1;whiteSpace=wrap;html=1;shadow=1;" vertex="1" parent="1">
          <mxGeometry x="1369" y="530" width="120" height="43" as="geometry" />
        </mxCell>
        <mxCell id="MXPMxVQfIhnhI3akkJEb-69" value="" style="rounded=1;whiteSpace=wrap;html=1;shadow=1;" vertex="1" parent="1">
          <mxGeometry x="584.5" y="430" width="120" height="43" as="geometry" />
        </mxCell>
        <mxCell id="MXPMxVQfIhnhI3akkJEb-70" value="Login" style="text;html=1;strokeColor=none;fillColor=none;align=center;verticalAlign=middle;whiteSpace=wrap;rounded=0;shadow=1;" vertex="1" parent="1">
          <mxGeometry x="285" y="90" width="60" height="30" as="geometry" />
        </mxCell>
        <mxCell id="MXPMxVQfIhnhI3akkJEb-71" value="Invalid" style="text;html=1;strokeColor=none;fillColor=none;align=center;verticalAlign=middle;whiteSpace=wrap;rounded=0;shadow=1;" vertex="1" parent="1">
          <mxGeometry x="380" y="32.5" width="60" height="30" as="geometry" />
        </mxCell>
        <mxCell id="MXPMxVQfIhnhI3akkJEb-72" value="Check&lt;br&gt;Validation" style="text;html=1;strokeColor=none;fillColor=none;align=center;verticalAlign=middle;whiteSpace=wrap;rounded=0;shadow=1;" vertex="1" parent="1">
          <mxGeometry x="475" y="86.25" width="60" height="30" as="geometry" />
        </mxCell>
        <mxCell id="MXPMxVQfIhnhI3akkJEb-73" value="Consumer" style="text;html=1;strokeColor=none;fillColor=none;align=center;verticalAlign=middle;whiteSpace=wrap;rounded=0;shadow=1;" vertex="1" parent="1">
          <mxGeometry x="280" y="290" width="60" height="30" as="geometry" />
        </mxCell>
        <mxCell id="MXPMxVQfIhnhI3akkJEb-74" value="Admin" style="text;html=1;strokeColor=none;fillColor=none;align=center;verticalAlign=middle;whiteSpace=wrap;rounded=0;shadow=1;" vertex="1" parent="1">
          <mxGeometry x="845" y="290" width="60" height="30" as="geometry" />
        </mxCell>
        <mxCell id="MXPMxVQfIhnhI3akkJEb-75" value="Register /&lt;br&gt;Upgrade Profile" style="text;html=1;strokeColor=none;fillColor=none;align=center;verticalAlign=middle;whiteSpace=wrap;rounded=0;shadow=1;" vertex="1" parent="1">
          <mxGeometry x="20" y="436.5" width="120" height="30" as="geometry" />
        </mxCell>
        <mxCell id="MXPMxVQfIhnhI3akkJEb-76" value="Add To cart" style="text;html=1;strokeColor=none;fillColor=none;align=center;verticalAlign=middle;whiteSpace=wrap;rounded=0;shadow=1;" vertex="1" parent="1">
          <mxGeometry x="170" y="436.5" width="100" height="30" as="geometry" />
        </mxCell>
        <mxCell id="MXPMxVQfIhnhI3akkJEb-77" value="Checkout" style="text;html=1;strokeColor=none;fillColor=none;align=center;verticalAlign=middle;whiteSpace=wrap;rounded=0;shadow=1;" vertex="1" parent="1">
          <mxGeometry x="310" y="436.5" width="100" height="30" as="geometry" />
        </mxCell>
        <mxCell id="MXPMxVQfIhnhI3akkJEb-78" value="Payment" style="text;html=1;strokeColor=none;fillColor=none;align=center;verticalAlign=middle;whiteSpace=wrap;rounded=0;shadow=1;" vertex="1" parent="1">
          <mxGeometry x="460" y="436.5" width="80" height="30" as="geometry" />
        </mxCell>
        <mxCell id="MXPMxVQfIhnhI3akkJEb-79" value="Track orders" style="text;html=1;strokeColor=none;fillColor=none;align=center;verticalAlign=middle;whiteSpace=wrap;rounded=0;shadow=1;" vertex="1" parent="1">
          <mxGeometry x="604.5" y="436.5" width="75.5" height="30" as="geometry" />
        </mxCell>
        <mxCell id="MXPMxVQfIhnhI3akkJEb-80" value="Add New Products" style="text;html=1;strokeColor=none;fillColor=none;align=center;verticalAlign=middle;whiteSpace=wrap;rounded=0;shadow=1;" vertex="1" parent="1">
          <mxGeometry x="680" y="536.5" width="100" height="30" as="geometry" />
        </mxCell>
        <mxCell id="MXPMxVQfIhnhI3akkJEb-81" value="Update Product Details" style="text;html=1;strokeColor=none;fillColor=none;align=center;verticalAlign=middle;whiteSpace=wrap;rounded=0;shadow=1;" vertex="1" parent="1">
          <mxGeometry x="820" y="536.5" width="100" height="30" as="geometry" />
        </mxCell>
        <mxCell id="MXPMxVQfIhnhI3akkJEb-82" value="Remove Product" style="text;html=1;strokeColor=none;fillColor=none;align=center;verticalAlign=middle;whiteSpace=wrap;rounded=0;shadow=1;" vertex="1" parent="1">
          <mxGeometry x="954.5" y="536.5" width="105.5" height="30" as="geometry" />
        </mxCell>
        <mxCell id="MXPMxVQfIhnhI3akkJEb-83" value="View&amp;nbsp; All Orders" style="text;html=1;strokeColor=none;fillColor=none;align=center;verticalAlign=middle;whiteSpace=wrap;rounded=0;shadow=1;" vertex="1" parent="1">
          <mxGeometry x="1100" y="536.5" width="100" height="30" as="geometry" />
        </mxCell>
        <mxCell id="MXPMxVQfIhnhI3akkJEb-84" value="Chage Order Status" style="text;html=1;strokeColor=none;fillColor=none;align=center;verticalAlign=middle;whiteSpace=wrap;rounded=0;shadow=1;" vertex="1" parent="1">
          <mxGeometry x="1240" y="536.5" width="100" height="30" as="geometry" />
        </mxCell>
        <mxCell id="MXPMxVQfIhnhI3akkJEb-85" value="View Consumer Details" style="text;html=1;strokeColor=none;fillColor=none;align=center;verticalAlign=middle;whiteSpace=wrap;rounded=0;shadow=1;" vertex="1" parent="1">
          <mxGeometry x="1380" y="536.5" width="100" height="30" as="geometry" />
        </mxCell>
        <mxCell id="MXPMxVQfIhnhI3akkJEb-86" value="" style="endArrow=none;html=1;rounded=0;shadow=1;" edge="1" parent="1">
          <mxGeometry width="50" height="50" relative="1" as="geometry">
            <mxPoint x="730" y="500" as="sourcePoint" />
            <mxPoint x="1430" y="500" as="targetPoint" />
          </mxGeometry>
        </mxCell>
        <mxCell id="MXPMxVQfIhnhI3akkJEb-87" value="" style="endArrow=classic;html=1;rounded=0;entryX=0.5;entryY=0;entryDx=0;entryDy=0;shadow=1;" edge="1" parent="1">
          <mxGeometry width="50" height="50" relative="1" as="geometry">
            <mxPoint x="730" y="500" as="sourcePoint" />
            <mxPoint x="730" y="530" as="targetPoint" />
          </mxGeometry>
        </mxCell>
        <mxCell id="MXPMxVQfIhnhI3akkJEb-88" value="" style="endArrow=classic;html=1;rounded=0;shadow=1;" edge="1" parent="1">
          <mxGeometry width="50" height="50" relative="1" as="geometry">
            <mxPoint x="867" y="500" as="sourcePoint" />
            <mxPoint x="867" y="530" as="targetPoint" />
          </mxGeometry>
        </mxCell>
        <mxCell id="MXPMxVQfIhnhI3akkJEb-89" value="" style="endArrow=classic;html=1;rounded=0;entryX=0.425;entryY=0.047;entryDx=0;entryDy=0;entryPerimeter=0;shadow=1;" edge="1" parent="1">
          <mxGeometry width="50" height="50" relative="1" as="geometry">
            <mxPoint x="1000" y="500" as="sourcePoint" />
            <mxPoint x="1001" y="532.021" as="targetPoint" />
          </mxGeometry>
        </mxCell>
        <mxCell id="MXPMxVQfIhnhI3akkJEb-90" value="" style="endArrow=classic;html=1;rounded=0;entryX=0.425;entryY=0.047;entryDx=0;entryDy=0;entryPerimeter=0;shadow=1;" edge="1" parent="1">
          <mxGeometry width="50" height="50" relative="1" as="geometry">
            <mxPoint x="1140" y="500" as="sourcePoint" />
            <mxPoint x="1141" y="532.021" as="targetPoint" />
          </mxGeometry>
        </mxCell>
        <mxCell id="MXPMxVQfIhnhI3akkJEb-91" value="" style="endArrow=classic;html=1;rounded=0;shadow=1;" edge="1" parent="1">
          <mxGeometry width="50" height="50" relative="1" as="geometry">
            <mxPoint x="1280" y="500" as="sourcePoint" />
            <mxPoint x="1280" y="530" as="targetPoint" />
          </mxGeometry>
        </mxCell>
        <mxCell id="MXPMxVQfIhnhI3akkJEb-92" value="" style="endArrow=classic;html=1;rounded=0;entryX=0.5;entryY=0;entryDx=0;entryDy=0;shadow=1;" edge="1" parent="1">
          <mxGeometry width="50" height="50" relative="1" as="geometry">
            <mxPoint x="1430" y="500" as="sourcePoint" />
            <mxPoint x="1430" y="530" as="targetPoint" />
          </mxGeometry>
        </mxCell>
        <mxCell id="MXPMxVQfIhnhI3akkJEb-93" value="" style="endArrow=none;html=1;rounded=0;shadow=1;" edge="1" parent="1">
          <mxGeometry width="50" height="50" relative="1" as="geometry">
            <mxPoint x="80" y="390" as="sourcePoint" />
            <mxPoint x="640" y="390" as="targetPoint" />
          </mxGeometry>
        </mxCell>
        <mxCell id="MXPMxVQfIhnhI3akkJEb-94" value="" style="endArrow=classic;html=1;rounded=0;shadow=1;" edge="1" parent="1">
          <mxGeometry width="50" height="50" relative="1" as="geometry">
            <mxPoint x="640" y="390" as="sourcePoint" />
            <mxPoint x="640" y="430" as="targetPoint" />
          </mxGeometry>
        </mxCell>
        <mxCell id="MXPMxVQfIhnhI3akkJEb-95" value="" style="endArrow=classic;html=1;rounded=0;entryX=0.5;entryY=0;entryDx=0;entryDy=0;shadow=1;" edge="1" parent="1" target="MXPMxVQfIhnhI3akkJEb-58">
          <mxGeometry width="50" height="50" relative="1" as="geometry">
            <mxPoint x="500" y="390" as="sourcePoint" />
            <mxPoint x="610" y="290" as="targetPoint" />
          </mxGeometry>
        </mxCell>
        <mxCell id="MXPMxVQfIhnhI3akkJEb-96" value="" style="endArrow=classic;html=1;rounded=0;entryX=0.5;entryY=0;entryDx=0;entryDy=0;shadow=1;" edge="1" parent="1" target="MXPMxVQfIhnhI3akkJEb-57">
          <mxGeometry width="50" height="50" relative="1" as="geometry">
            <mxPoint x="360" y="390" as="sourcePoint" />
            <mxPoint x="610" y="290" as="targetPoint" />
          </mxGeometry>
        </mxCell>
        <mxCell id="MXPMxVQfIhnhI3akkJEb-97" value="" style="endArrow=classic;html=1;rounded=0;shadow=1;" edge="1" parent="1">
          <mxGeometry width="50" height="50" relative="1" as="geometry">
            <mxPoint x="215" y="390" as="sourcePoint" />
            <mxPoint x="216" y="430" as="targetPoint" />
          </mxGeometry>
        </mxCell>
        <mxCell id="MXPMxVQfIhnhI3akkJEb-98" value="" style="endArrow=classic;html=1;rounded=0;entryX=0.5;entryY=0;entryDx=0;entryDy=0;shadow=1;" edge="1" parent="1" target="MXPMxVQfIhnhI3akkJEb-55">
          <mxGeometry width="50" height="50" relative="1" as="geometry">
            <mxPoint x="80" y="390" as="sourcePoint" />
            <mxPoint x="610" y="290" as="targetPoint" />
          </mxGeometry>
        </mxCell>
        <mxCell id="MXPMxVQfIhnhI3akkJEb-99" value="&lt;h1&gt;&lt;span style=&quot;background-color: initial;&quot;&gt;Sequence Diagram&lt;/span&gt;&lt;br&gt;&lt;/h1&gt;" style="text;html=1;strokeColor=none;fillColor=none;spacing=5;spacingTop=-20;whiteSpace=wrap;overflow=hidden;rounded=0;shadow=1;" vertex="1" parent="1">
          <mxGeometry x="725" y="76.88" width="345" height="48.75" as="geometry" />
        </mxCell>
        <mxCell id="MXPMxVQfIhnhI3akkJEb-100" value="" style="endArrow=none;html=1;rounded=0;shadow=1;" edge="1" parent="1">
          <mxGeometry width="50" height="50" relative="1" as="geometry">
            <mxPoint x="80" y="760" as="sourcePoint" />
            <mxPoint x="1440" y="760" as="targetPoint" />
          </mxGeometry>
        </mxCell>
        <mxCell id="MXPMxVQfIhnhI3akkJEb-101" value="" style="endArrow=classic;html=1;rounded=0;shadow=1;exitX=0.5;exitY=1;exitDx=0;exitDy=0;" edge="1" parent="1" source="MXPMxVQfIhnhI3akkJEb-55">
          <mxGeometry width="50" height="50" relative="1" as="geometry">
            <mxPoint x="750" y="560" as="sourcePoint" />
            <mxPoint x="80" y="760" as="targetPoint" />
          </mxGeometry>
        </mxCell>
        <mxCell id="MXPMxVQfIhnhI3akkJEb-102" value="" style="endArrow=classic;html=1;rounded=0;shadow=1;exitX=0.5;exitY=1;exitDx=0;exitDy=0;" edge="1" parent="1">
          <mxGeometry width="50" height="50" relative="1" as="geometry">
            <mxPoint x="215.00000000000023" y="473.9999999999998" as="sourcePoint" />
            <mxPoint x="215.00000000000023" y="761.0000000000002" as="targetPoint" />
          </mxGeometry>
        </mxCell>
        <mxCell id="MXPMxVQfIhnhI3akkJEb-103" value="" style="endArrow=classic;html=1;rounded=0;shadow=1;exitX=0.5;exitY=1;exitDx=0;exitDy=0;" edge="1" parent="1">
          <mxGeometry width="50" height="50" relative="1" as="geometry">
            <mxPoint x="358.0000000000002" y="473.9999999999998" as="sourcePoint" />
            <mxPoint x="358.0000000000002" y="761.0000000000002" as="targetPoint" />
          </mxGeometry>
        </mxCell>
        <mxCell id="MXPMxVQfIhnhI3akkJEb-104" value="" style="endArrow=classic;html=1;rounded=0;shadow=1;exitX=0.5;exitY=1;exitDx=0;exitDy=0;" edge="1" parent="1">
          <mxGeometry width="50" height="50" relative="1" as="geometry">
            <mxPoint x="499.23000000000025" y="472.9999999999998" as="sourcePoint" />
            <mxPoint x="499.23000000000025" y="760.0000000000002" as="targetPoint" />
          </mxGeometry>
        </mxCell>
        <mxCell id="MXPMxVQfIhnhI3akkJEb-105" value="" style="endArrow=classic;html=1;rounded=0;shadow=1;exitX=0.5;exitY=1;exitDx=0;exitDy=0;" edge="1" parent="1">
          <mxGeometry width="50" height="50" relative="1" as="geometry">
            <mxPoint x="641.4800000000002" y="472.9999999999998" as="sourcePoint" />
            <mxPoint x="641.4800000000002" y="760.0000000000002" as="targetPoint" />
          </mxGeometry>
        </mxCell>
        <mxCell id="MXPMxVQfIhnhI3akkJEb-106" value="" style="endArrow=classic;html=1;rounded=0;shadow=1;exitX=0.5;exitY=1;exitDx=0;exitDy=0;" edge="1" parent="1" source="MXPMxVQfIhnhI3akkJEb-63">
          <mxGeometry width="50" height="50" relative="1" as="geometry">
            <mxPoint x="730" y="580" as="sourcePoint" />
            <mxPoint x="730" y="760" as="targetPoint" />
          </mxGeometry>
        </mxCell>
        <mxCell id="MXPMxVQfIhnhI3akkJEb-107" value="" style="endArrow=classic;html=1;rounded=0;shadow=1;exitX=0.5;exitY=1;exitDx=0;exitDy=0;" edge="1" parent="1">
          <mxGeometry width="50" height="50" relative="1" as="geometry">
            <mxPoint x="869.23" y="573.0000000000002" as="sourcePoint" />
            <mxPoint x="870.23" y="760.0000000000002" as="targetPoint" />
          </mxGeometry>
        </mxCell>
        <mxCell id="MXPMxVQfIhnhI3akkJEb-108" value="" style="endArrow=classic;html=1;rounded=0;shadow=1;exitX=0.5;exitY=1;exitDx=0;exitDy=0;" edge="1" parent="1">
          <mxGeometry width="50" height="50" relative="1" as="geometry">
            <mxPoint x="1000" y="573.0000000000002" as="sourcePoint" />
            <mxPoint x="1001" y="760.0000000000002" as="targetPoint" />
          </mxGeometry>
        </mxCell>
        <mxCell id="MXPMxVQfIhnhI3akkJEb-109" value="" style="endArrow=classic;html=1;rounded=0;shadow=1;exitX=0.5;exitY=1;exitDx=0;exitDy=0;" edge="1" parent="1">
          <mxGeometry width="50" height="50" relative="1" as="geometry">
            <mxPoint x="1140" y="573.0000000000002" as="sourcePoint" />
            <mxPoint x="1141" y="760.0000000000002" as="targetPoint" />
          </mxGeometry>
        </mxCell>
        <mxCell id="MXPMxVQfIhnhI3akkJEb-110" value="" style="endArrow=classic;html=1;rounded=0;shadow=1;exitX=0.5;exitY=1;exitDx=0;exitDy=0;" edge="1" parent="1">
          <mxGeometry width="50" height="50" relative="1" as="geometry">
            <mxPoint x="1280" y="573.0000000000002" as="sourcePoint" />
            <mxPoint x="1281" y="760.0000000000002" as="targetPoint" />
          </mxGeometry>
        </mxCell>
        <mxCell id="MXPMxVQfIhnhI3akkJEb-111" value="" style="endArrow=classic;html=1;rounded=0;shadow=1;exitX=0.5;exitY=1;exitDx=0;exitDy=0;" edge="1" parent="1">
          <mxGeometry width="50" height="50" relative="1" as="geometry">
            <mxPoint x="1429.23" y="573.0000000000002" as="sourcePoint" />
            <mxPoint x="1430.23" y="760.0000000000002" as="targetPoint" />
          </mxGeometry>
        </mxCell>
        <mxCell id="MXPMxVQfIhnhI3akkJEb-112" value="" style="endArrow=classic;html=1;rounded=0;shadow=1;" edge="1" parent="1">
          <mxGeometry width="50" height="50" relative="1" as="geometry">
            <mxPoint x="720" y="760" as="sourcePoint" />
            <mxPoint x="720" y="860" as="targetPoint" />
          </mxGeometry>
        </mxCell>
        <mxCell id="MXPMxVQfIhnhI3akkJEb-113" value="" style="ellipse;whiteSpace=wrap;html=1;aspect=fixed;shadow=1;" vertex="1" parent="1">
          <mxGeometry x="692" y="860" width="54.5" height="54.5" as="geometry" />
        </mxCell>
      </root>
    </mxGraphModel>
  </diagram>
</mxfile>
